<svg width="306" height="51" viewBox="0 0 306 51" fill="none" xmlns="http://www.w3.org/2000/svg">
<g clip-path="url(#clip0_1961_987)">
<path d="M27 50.25C40.669 50.25 51.75 39.169 51.75 25.5C51.75 11.831 40.669 0.75 27 0.75C13.331 0.75 2.25 11.831 2.25 25.5C2.25 39.169 13.331 50.25 27 50.25Z" fill="url(#paint0_radial_1961_987)"/>
<path d="M27 1C40.55 1 51.5 11.95 51.5 25.5C51.5 39.05 40.55 50 27 50C13.45 50 2.5 39.05 2.5 25.5C2.5 11.95 13.45 1 27 1ZM27 0.5C20.3 0.5 14.05 3.1 9.35 7.85C4.65 12.6 2 18.85 2 25.5C2 32.15 4.6 38.45 9.35 43.15C14.1 47.85 20.35 50.5 27 50.5C33.65 50.5 39.95 47.9 44.65 43.15C49.35 38.4 52 32.15 52 25.5C52 18.85 49.4 12.55 44.65 7.85C39.9 3.15 33.7 0.5 27 0.5Z" fill="white"/>
<mask id="mask0_1961_987" style="mask-type:luminance" maskUnits="userSpaceOnUse" x="2" y="1" width="50" height="49">
<path d="M27 50C40.531 50 51.5 39.031 51.5 25.5C51.5 11.969 40.531 1 27 1C13.469 1 2.5 11.969 2.5 25.5C2.5 39.031 13.469 50 27 50Z" fill="white"/>
</mask>
<g mask="url(#mask0_1961_987)">
<path d="M32.1498 28.7C33.061 28.7 33.7998 27.9613 33.7998 27.05C33.7998 26.1388 33.061 25.4 32.1498 25.4C31.2385 25.4 30.4998 26.1388 30.4998 27.05C30.4998 27.9613 31.2385 28.7 32.1498 28.7Z" fill="url(#paint1_linear_1961_987)"/>
<path d="M25.4999 26.1C26.2731 26.1 26.8999 25.4732 26.8999 24.7001C26.8999 23.9269 26.2731 23.3 25.4999 23.3C24.7267 23.3 24.0999 23.9269 24.0999 24.7001C24.0999 25.4732 24.7267 26.1 25.4999 26.1Z" fill="url(#paint2_linear_1961_987)"/>
<path opacity="0.8" d="M25.2499 9.15007C25.8574 9.15007 26.3499 8.65759 26.3499 8.05007C26.3499 7.44256 25.8574 6.95007 25.2499 6.95007C24.6424 6.95007 24.1499 7.44256 24.1499 8.05007C24.1499 8.65759 24.6424 9.15007 25.2499 9.15007Z" fill="url(#paint3_linear_1961_987)"/>
<path opacity="0.8" d="M43.7499 24.4001C44.2193 24.4001 44.5999 24.0195 44.5999 23.5501C44.5999 23.0806 44.2193 22.7001 43.7499 22.7001C43.2805 22.7001 42.8999 23.0806 42.8999 23.5501C42.8999 24.0195 43.2805 24.4001 43.7499 24.4001Z" fill="url(#paint4_linear_1961_987)"/>
<path opacity="0.8" d="M35.9498 24.3C39.7606 24.3 42.8498 21.2108 42.8498 17.4C42.8498 13.5892 39.7606 10.5 35.9498 10.5C32.139 10.5 29.0498 13.5892 29.0498 17.4C29.0498 21.2108 32.139 24.3 35.9498 24.3Z" fill="url(#paint5_linear_1961_987)"/>
<path d="M41.7999 17.5H40.9499C40.9499 14.7 38.6499 12.4 35.8499 12.4V11.55C39.1499 11.55 41.7999 14.2 41.7999 17.5Z" fill="#EBF7FE"/>
<path opacity="0.8" d="M37.8999 30.9C40.2747 30.9 42.1999 28.9749 42.1999 26.6C42.1999 24.2252 40.2747 22.3 37.8999 22.3C35.525 22.3 33.5999 24.2252 33.5999 26.6C33.5999 28.9749 35.525 30.9 37.8999 30.9Z" fill="url(#paint6_linear_1961_987)"/>
<path d="M41.3998 27.0501L40.8998 27.0001C41.0998 25.3501 39.9498 23.8001 38.2998 23.6001L38.3498 23.1001C40.2998 23.3501 41.6498 25.1501 41.3998 27.0501Z" fill="#EBF7FE"/>
<path opacity="0.8" d="M24.0997 19.5001C25.8394 19.5001 27.2497 18.0898 27.2497 16.3501C27.2497 14.6104 25.8394 13.2001 24.0997 13.2001C22.36 13.2001 20.9497 14.6104 20.9497 16.3501C20.9497 18.0898 22.36 19.5001 24.0997 19.5001Z" fill="url(#paint7_linear_1961_987)"/>
<path d="M26.6999 16.7L26.3499 16.65C26.4999 15.45 25.6499 14.3 24.3999 14.15L24.4499 13.8C25.8999 13.95 26.8999 15.3 26.6999 16.7Z" fill="#EBF7FE"/>
<path d="M45.0998 14.9C45.3498 14.5 45.4998 14.1 45.4998 13.85C45.4998 13.6 45.2498 13.25 44.7498 12.9C45.0498 13.15 45.3998 13.25 45.6998 13.25C45.9998 13.25 46.5498 12.95 46.8498 12.4C46.5998 12.9 46.4998 13.3 46.4998 13.55C46.4998 13.8 46.7498 14.2 47.2498 14.85C46.7998 14.45 46.3998 14.3 46.0998 14.3C45.7998 14.3 45.5498 14.5 45.0998 14.9Z" fill="url(#paint8_radial_1961_987)"/>
<path d="M31.8998 24.9C32.1498 24.5 32.2998 24.1 32.2998 23.85C32.2998 23.6 32.0498 23.25 31.5498 22.9C31.8498 23.15 32.1998 23.25 32.4998 23.25C32.7998 23.25 33.3498 22.95 33.6498 22.4C33.3998 22.9 33.2998 23.3 33.2998 23.55C33.2998 23.8 33.5498 24.2 34.0498 24.85C33.5998 24.45 33.1998 24.3 32.8998 24.3C32.5998 24.3 32.2998 24.5 31.8998 24.9Z" fill="url(#paint9_radial_1961_987)"/>
<path d="M18.4998 12.8001C18.6498 12.5501 18.7498 12.3001 18.7498 12.1501C18.7498 12.0001 18.5998 11.8001 18.2998 11.5501C18.4998 11.7001 18.6998 11.7501 18.8998 11.7501C19.0998 11.7501 19.3998 11.5501 19.6498 11.2001C19.4998 11.5001 19.3998 11.7501 19.3998 11.9001C19.3998 12.0501 19.5498 12.3001 19.8498 12.7001C19.5498 12.4501 19.3498 12.3501 19.1498 12.3501C18.9498 12.3501 18.7998 12.5501 18.4998 12.8001Z" fill="url(#paint10_radial_1961_987)"/>
<path d="M30.3498 8.80005C30.5998 8.40005 30.7498 8.00005 30.7498 7.75005C30.7498 7.50005 30.4998 7.15005 29.9998 6.80005C30.2998 7.05005 30.6498 7.15005 30.9498 7.15005C31.2498 7.15005 31.7998 6.85005 32.0998 6.30005C31.8498 6.80005 31.7498 7.20005 31.7498 7.45005C31.7498 7.70005 31.9998 8.10005 32.4998 8.75005C32.0498 8.35005 31.6498 8.20005 31.3498 8.20005C31.0498 8.20005 30.7998 8.40005 30.3498 8.80005Z" fill="url(#paint11_radial_1961_987)"/>
<path d="M42.5499 26.8001C42.6999 26.5501 42.7999 26.3001 42.7999 26.1501C42.7999 26.0001 42.6499 25.8001 42.3499 25.5501C42.5499 25.7001 42.7499 25.7501 42.9499 25.7501C43.1499 25.7501 43.4499 25.5501 43.6999 25.2001C43.5499 25.5001 43.4499 25.7501 43.4499 25.9001C43.4499 26.0501 43.5999 26.3001 43.8999 26.7001C43.5999 26.4501 43.3999 26.3501 43.1999 26.3501C42.9999 26.3501 42.7999 26.5501 42.5499 26.8001Z" fill="url(#paint12_radial_1961_987)"/>
<path d="M24.0498 20.5001C24.2498 20.2001 24.3498 19.9501 24.3498 19.7001C24.3498 19.5001 24.1498 19.2501 23.7998 19.0001C24.0498 19.1501 24.2998 19.2501 24.4998 19.2501C24.7498 19.2501 25.0998 19.0501 25.3498 18.6001C25.1498 19.0001 25.0998 19.2501 25.0998 19.4501C25.0998 19.6501 25.2998 19.9501 25.6498 20.4001C25.2998 20.1001 24.9998 20.0001 24.7998 20.0001C24.5498 20.0501 24.3998 20.2001 24.0498 20.5001Z" fill="url(#paint13_radial_1961_987)"/>
<path d="M36.9998 35.25C37.1998 34.95 37.2998 34.6501 37.2998 34.4501C37.2998 34.2501 37.0998 34.0001 36.7498 33.7001C36.9998 33.8501 37.2498 33.9501 37.4998 33.9501C37.7498 33.9501 38.1498 33.75 38.3498 33.3C38.1498 33.7 38.0498 34.0001 38.0498 34.1501C38.0498 34.3501 38.2498 34.6501 38.5998 35.1501C38.2498 34.8501 37.9498 34.75 37.7498 34.75C37.5498 34.75 37.2998 34.9 36.9998 35.25Z" fill="black"/>
<path d="M38.7499 12.55C38.8499 12.45 38.8499 12.3 38.8499 12.25C38.8499 12.15 38.7999 12.1 38.6499 11.95C38.7499 12 38.8499 12.05 38.9499 12.05C39.0499 12.05 39.1999 11.95 39.2999 11.8C39.2499 11.95 39.1999 12.05 39.1999 12.15C39.1999 12.25 39.2499 12.35 39.3999 12.55C39.2499 12.45 39.1499 12.4 39.0499 12.4C38.9499 12.4 38.8499 12.45 38.7499 12.55Z" fill="url(#paint14_radial_1961_987)"/>
<path d="M26.4999 27.05L44.6999 45.25L21.7999 68.1L3.6499 49.9501L26.4999 27.05Z" fill="url(#paint15_radial_1961_987)"/>
<path d="M8.14985 41.75L8.09985 44.25L10.4499 44.1C11.4999 43.35 12.6499 42.5 13.8499 41.6C18.7499 37.9 24.4499 33.35 30.0499 33.2L19.4499 22.4C19.1499 28 14.4999 33.6 10.6999 38.4C9.79985 39.6 8.89985 40.7 8.14985 41.75Z" fill="#FAC600"/>
<path d="M11.6998 39.4L12.9498 40.65C13.4998 41.2 14.3998 41.3 15.0498 40.8C19.6498 37.3 24.9498 33.4 30.1498 33.25L25.9998 26.6L19.4998 22.35C19.2498 27.55 15.2498 32.7 11.6498 37.25C11.0998 37.9 11.1498 38.8 11.6998 39.4Z" fill="#FED402"/>
<path d="M-6.75005 56.35L-1.95005 51.6501L0.399947 54.05L-2.65005 57.0501C-4.15005 58.5001 -4.15005 60.9501 -2.65005 62.5001L0.399947 65.6501C1.89995 67.2001 4.34995 67.2501 5.84995 65.8001L21.4999 50.4001C22.9999 48.9501 22.9999 46.5001 21.4999 44.9501L22.0999 42.75L24.1999 42.3C25.5999 43.7 26.2999 45.6001 26.2499 47.4001C26.2499 49.2501 25.5 51.1001 24.0999 52.5001L6.44995 69.8001C4.44995 71.7501 1.19995 71.75 -0.750052 69.7001L-6.80005 63.5501C-8.75005 61.5501 -8.70005 58.3001 -6.75005 56.35Z" fill="#FAC600"/>
<path d="M-5.15004 54.8L-0.350037 50.1L1.99996 52.5L-2.65004 57.05C-4.15004 58.5 -4.15004 60.95 -2.65004 62.5L0.399963 65.65C1.89996 67.2 4.34996 67.25 5.84996 65.8L23.1 48.9C24.6 47.45 24.6 45 23.1 43.45V42.7L24.15 42.4C25.55 43.8 26.25 45.7 26.2 47.5C26.2 49.35 25.45 51.2 24.05 52.6L8.04996 68.25C6.04996 70.2 2.79996 70.2 0.849963 68.15L-5.15004 62C-7.15004 59.95 -7.10004 56.75 -5.15004 54.8Z" fill="#FED402"/>
<path d="M-8.7501 67.65L-11.1001 65.25L-7.7001 61.9L12.3999 42.25C14.0499 40.65 16.1499 39.85 18.2499 39.9C20.3499 39.9 22.4499 40.75 24.0999 42.4L23.0499 43.45C21.1499 41.5 17.9999 41.45 16.0499 43.4L-5.3501 64.35L-8.7501 67.65Z" fill="#D7D0D6"/>
<path d="M14.45 44.9C16.4 43 19.55 43 21.45 44.95L23.0499 43.4C21.15 41.45 18 41.4 16.05 43.35L14.45 44.9Z" fill="#BAAFB9"/>
<path d="M19.1999 22.1L30.3999 33.55C31.0499 34.2 32.0999 34.25 32.7999 33.55C32.9999 33.35 33.1499 33.05 33.2499 32.8C33.3999 32.25 33.2499 31.6 32.8499 31.15L21.5999 19.75C21.1499 19.3 20.5499 19.15 19.9999 19.3C19.6999 19.35 19.4499 19.5 19.2499 19.75C18.8999 20.1 18.7499 20.5 18.7499 20.95C18.6999 21.35 18.8499 21.8 19.1999 22.1Z" fill="#FEDBA6"/>
<path d="M20.3998 20.95L31.5998 32.4C32.0498 32.85 32.6498 33 33.1998 32.85C33.3498 32.3 33.1998 31.65 32.7998 31.2L21.5998 19.75C21.1498 19.3 20.5498 19.15 19.9998 19.3C19.9498 19.45 19.9498 19.6 19.9498 19.75C19.8998 20.15 20.0498 20.6 20.3998 20.95Z" fill="#FFEFD2"/>
</g>
</g>
<path d="M62.944 16.26C62.9653 16.0893 63.0293 15.972 63.136 15.908C63.264 15.8227 63.3813 15.78 63.488 15.78C64.9387 15.78 66.2933 15.7373 67.552 15.652C68.832 15.5453 69.8347 15.492 70.56 15.492C72.3733 15.492 73.888 15.6733 75.104 16.036C76.3413 16.3987 77.3333 16.964 78.08 17.732C78.848 18.5 79.392 19.492 79.712 20.708C80.032 21.924 80.192 23.3853 80.192 25.092C80.192 26.82 80.0107 28.516 79.648 30.18C79.3067 31.8227 78.6987 33.284 77.824 34.564C76.9493 35.844 75.7653 36.8787 74.272 37.668C72.8 38.436 70.9333 38.82 68.672 38.82C67.6267 38.82 66.6667 38.7987 65.792 38.756C64.9387 38.7133 64.2027 38.5853 63.584 38.372C62.9653 38.1587 62.4853 37.8387 62.144 37.412C61.8027 36.9853 61.632 36.3987 61.632 35.652C61.632 35.3747 61.6427 34.9587 61.664 34.404C61.7067 33.8493 61.7493 33.188 61.792 32.42C61.856 31.652 61.92 30.8093 61.984 29.892C62.0693 28.9533 62.1547 27.972 62.24 26.948C62.4107 24.836 62.5387 23.1507 62.624 21.892C62.7307 20.6333 62.7947 19.652 62.816 18.948C62.8587 18.2227 62.88 17.6787 62.88 17.316C62.9013 16.9533 62.9227 16.6013 62.944 16.26ZM68.896 33.764C70.0907 33.764 71.04 33.508 71.744 32.996C72.4693 32.484 73.024 31.8333 73.408 31.044C73.792 30.2547 74.048 29.3907 74.176 28.452C74.304 27.5133 74.368 26.628 74.368 25.796C74.368 24.9 74.304 24.1213 74.176 23.46C74.0693 22.7773 73.8667 22.212 73.568 21.764C73.2907 21.316 72.896 20.9853 72.384 20.772C71.872 20.5373 71.232 20.42 70.464 20.42C70.2293 20.42 69.9307 20.4307 69.568 20.452C69.2053 20.4733 68.768 20.5053 68.256 20.548C68.2133 21.3373 68.16 22.276 68.096 23.364C68.032 24.4307 67.9573 25.5613 67.872 26.756C67.808 27.9293 67.7333 29.124 67.648 30.34C67.5627 31.5347 67.4773 32.644 67.392 33.668C67.712 33.7107 68 33.7427 68.256 33.764C68.512 33.764 68.7253 33.764 68.896 33.764ZM101.109 28.068C101.045 28.708 100.949 29.4227 100.821 30.212C100.693 30.98 100.49 31.7693 100.213 32.58C99.9565 33.3693 99.6045 34.1373 99.1565 34.884C98.7085 35.6307 98.1325 36.3027 97.4285 36.9C96.7245 37.476 95.8712 37.9453 94.8685 38.308C93.8872 38.6493 92.7138 38.82 91.3485 38.82C89.9618 38.82 88.7778 38.628 87.7965 38.244C86.8152 37.8387 86.0152 37.2947 85.3965 36.612C84.7778 35.908 84.3298 35.0973 84.0525 34.18C83.7752 33.2627 83.6365 32.2813 83.6365 31.236C83.6365 30.7667 83.6578 30.1373 83.7005 29.348C83.7432 28.5373 83.7965 27.6627 83.8605 26.724C83.9458 25.7853 84.0312 24.8147 84.1165 23.812C84.2018 22.788 84.2765 21.8173 84.3405 20.9C84.4258 19.9827 84.5005 19.1613 84.5645 18.436C84.6285 17.6893 84.6712 17.124 84.6925 16.74C84.7138 16.3347 84.7672 16.0787 84.8525 15.972C84.9378 15.844 85.0658 15.78 85.2365 15.78H86.9965C88.2978 15.78 89.1725 16.0573 89.6205 16.612C90.0685 17.1667 90.2925 17.988 90.2925 19.076C90.2925 19.14 90.2712 19.428 90.2285 19.94C90.2072 20.4307 90.1645 21.0387 90.1005 21.764C90.0578 22.4893 90.0045 23.2787 89.9405 24.132C89.8978 24.9853 89.8445 25.796 89.7805 26.564C89.7378 27.332 89.6952 28.004 89.6525 28.58C89.6312 29.156 89.6205 29.54 89.6205 29.732C89.6205 30.0947 89.6312 30.5107 89.6525 30.98C89.6952 31.4493 89.7805 31.8973 89.9085 32.324C90.0578 32.7507 90.2818 33.1133 90.5805 33.412C90.9005 33.6893 91.3485 33.828 91.9245 33.828C92.6498 33.828 93.2365 33.5827 93.6845 33.092C94.1538 32.6013 94.5058 32.0147 94.7405 31.332C94.9965 30.6493 95.1672 29.956 95.2525 29.252C95.3592 28.548 95.4338 27.972 95.4765 27.524C95.5618 26.436 95.6472 25.316 95.7325 24.164C95.8392 23.012 95.9245 21.9347 95.9885 20.932C96.0738 19.9293 96.1378 19.0547 96.1805 18.308C96.2232 17.5613 96.2445 17.0493 96.2445 16.772C96.2445 16.3453 96.2765 16.0787 96.3405 15.972C96.4045 15.844 96.5432 15.78 96.7565 15.78H98.5165C99.2418 15.78 99.8072 15.844 100.213 15.972C100.639 16.1 100.959 16.2707 101.173 16.484C101.386 16.6973 101.514 16.9427 101.557 17.22C101.621 17.4973 101.653 17.7853 101.653 18.084C101.653 18.3613 101.631 18.884 101.589 19.652C101.567 20.42 101.535 21.2947 101.493 22.276C101.45 23.2573 101.397 24.2707 101.333 25.316C101.269 26.3613 101.194 27.2787 101.109 28.068ZM116.366 15.428C117.924 15.428 119.257 15.652 120.366 16.1C121.476 16.5267 122.382 17.1667 123.086 18.02C123.79 18.852 124.302 19.876 124.622 21.092C124.942 22.2867 125.102 23.652 125.102 25.188C125.102 26.0413 125.038 26.9693 124.91 27.972C124.804 28.9747 124.59 29.988 124.27 31.012C123.972 32.0147 123.556 32.9853 123.022 33.924C122.489 34.8627 121.796 35.6947 120.942 36.42C120.11 37.1453 119.108 37.732 117.934 38.18C116.761 38.6067 115.374 38.82 113.774 38.82C112.004 38.82 110.532 38.5533 109.358 38.02C108.206 37.4867 107.278 36.772 106.574 35.876C105.892 34.9587 105.401 33.8813 105.102 32.644C104.825 31.4067 104.686 30.084 104.686 28.676C104.686 27.012 104.878 25.3907 105.262 23.812C105.646 22.212 106.286 20.7933 107.182 19.556C108.1 18.3187 109.305 17.3267 110.798 16.58C112.292 15.812 114.148 15.428 116.366 15.428ZM115.694 20.388C114.948 20.388 114.297 20.5267 113.742 20.804C113.209 21.06 112.75 21.412 112.366 21.86C112.004 22.308 111.705 22.8093 111.47 23.364C111.257 23.9187 111.086 24.4947 110.958 25.092C110.83 25.668 110.745 26.2333 110.702 26.788C110.66 27.3213 110.638 27.8013 110.638 28.228C110.638 30.1693 110.958 31.588 111.598 32.484C112.26 33.38 113.188 33.828 114.382 33.828C115.364 33.828 116.164 33.5187 116.782 32.9C117.401 32.26 117.881 31.5027 118.222 30.628C118.585 29.732 118.83 28.8147 118.958 27.876C119.086 26.916 119.15 26.1053 119.15 25.444C119.15 23.8867 118.884 22.66 118.35 21.764C117.817 20.8467 116.932 20.388 115.694 20.388ZM155.951 21.444C155.781 21.956 155.557 22.628 155.279 23.46C155.023 24.2707 154.735 25.1667 154.415 26.148C154.095 27.1293 153.765 28.1747 153.423 29.284C153.082 30.372 152.73 31.4387 152.367 32.484C152.026 33.5293 151.685 34.532 151.343 35.492C151.002 36.4307 150.693 37.252 150.415 37.956C150.33 38.1267 150.149 38.2653 149.871 38.372C149.615 38.4573 149.199 38.5 148.623 38.5C148.261 38.5 147.887 38.4787 147.503 38.436C147.119 38.3933 146.757 38.308 146.415 38.18C146.095 38.052 145.807 37.8813 145.551 37.668C145.317 37.4547 145.135 37.188 145.007 36.868C144.687 35.78 144.378 34.5747 144.079 33.252C143.802 31.908 143.525 30.5427 143.247 29.156C142.97 27.7693 142.693 26.4147 142.415 25.092C142.159 23.748 141.893 22.532 141.615 21.444C141.615 21.7427 141.605 22.2547 141.583 22.98C141.562 23.7053 141.541 24.548 141.519 25.508C141.498 26.468 141.466 27.5027 141.423 28.612C141.402 29.7213 141.381 30.8093 141.359 31.876C141.338 32.9213 141.317 33.9027 141.295 34.82C141.274 35.716 141.263 36.452 141.263 37.028C141.263 37.668 141.221 38.0733 141.135 38.244C141.071 38.4147 140.943 38.5 140.751 38.5H138.991C137.775 38.5 136.911 38.2653 136.399 37.796C135.909 37.3053 135.663 36.5907 135.663 35.652C135.663 35.396 135.674 34.9693 135.695 34.372C135.738 33.7533 135.791 33.028 135.855 32.196C135.919 31.364 135.983 30.4573 136.047 29.476C136.133 28.4733 136.218 27.46 136.303 26.436C136.41 25.0493 136.495 23.8973 136.559 22.98C136.645 22.0413 136.709 21.2627 136.751 20.644C136.794 20.0253 136.826 19.524 136.847 19.14C136.89 18.756 136.911 18.4147 136.911 18.116C136.933 17.8173 136.943 17.54 136.943 17.284C136.965 17.0067 136.975 16.6653 136.975 16.26C136.975 16.0893 137.039 15.972 137.167 15.908C137.295 15.8227 137.413 15.78 137.519 15.78H141.999C142.831 15.78 143.514 15.9187 144.047 16.196C144.581 16.452 145.018 16.8573 145.359 17.412C145.701 17.9667 145.978 18.692 146.191 19.588C146.405 20.4627 146.597 21.508 146.767 22.724C146.959 23.94 147.162 25.348 147.375 26.948C147.61 28.5267 147.909 30.308 148.271 32.292C148.613 30.9693 148.901 29.8707 149.135 28.996C149.37 28.1213 149.562 27.396 149.711 26.82C149.882 26.2227 150.021 25.732 150.127 25.348C150.234 24.964 150.33 24.612 150.415 24.292C150.501 23.9507 150.597 23.588 150.703 23.204C150.81 22.82 150.938 22.34 151.087 21.764C151.237 21.188 151.418 20.4733 151.631 19.62C151.866 18.7453 152.154 17.6467 152.495 16.324C152.538 16.196 152.613 16.0787 152.719 15.972C152.826 15.844 153.018 15.78 153.295 15.78H158.287C158.97 15.78 159.514 15.8547 159.919 16.004C160.346 16.132 160.677 16.324 160.911 16.58C161.146 16.836 161.306 17.156 161.391 17.54C161.477 17.9027 161.519 18.3293 161.519 18.82C161.519 19.3107 161.487 20.1107 161.423 21.22C161.381 22.308 161.306 23.5453 161.199 24.932C161.114 26.2973 161.018 27.716 160.911 29.188C160.826 30.66 160.73 32.0253 160.623 33.284C160.538 34.5427 160.463 35.6093 160.399 36.484C160.335 37.3587 160.293 37.8707 160.271 38.02C160.25 38.1907 160.207 38.3187 160.143 38.404C160.079 38.468 159.951 38.5 159.759 38.5H157.999C156.783 38.5 155.919 38.2653 155.407 37.796C154.917 37.3053 154.671 36.676 154.671 35.908C154.671 35.6733 154.693 35.2467 154.735 34.628C154.799 34.0093 154.874 33.284 154.959 32.452C155.045 31.62 155.141 30.7133 155.247 29.732C155.354 28.7293 155.45 27.7373 155.535 26.756C155.621 25.7747 155.695 24.8253 155.759 23.908C155.845 22.9693 155.909 22.148 155.951 21.444ZM163.946 34.564C163.946 32.644 164.81 31.14 166.538 30.052C168.266 28.964 170.815 28.3773 174.186 28.292C174.207 28.0573 174.218 27.8653 174.218 27.716C174.239 27.5453 174.25 27.3427 174.25 27.108C174.25 26.4253 174.122 25.8813 173.866 25.476C173.61 25.0707 173.076 24.868 172.266 24.868C171.818 24.868 171.455 24.932 171.178 25.06C170.9 25.188 170.676 25.3693 170.506 25.604C170.335 25.8173 170.196 26.084 170.09 26.404C169.983 26.724 169.887 27.076 169.802 27.46C169.759 27.652 169.663 27.78 169.514 27.844C169.364 27.8867 169.13 27.908 168.81 27.908C166.634 27.908 165.546 27.0867 165.546 25.444C165.546 24.7827 165.695 24.1533 165.994 23.556C166.314 22.9587 166.772 22.4467 167.37 22.02C167.988 21.572 168.756 21.22 169.674 20.964C170.591 20.708 171.658 20.58 172.874 20.58C175.242 20.58 176.959 21.0707 178.026 22.052C179.092 23.0333 179.626 24.42 179.626 26.212C179.626 26.4467 179.594 26.8733 179.53 27.492C179.487 28.0893 179.423 28.7293 179.338 29.412C179.274 30.0733 179.21 30.7027 179.146 31.3C179.103 31.8973 179.082 32.3133 179.082 32.548C179.082 33.0813 179.178 33.4653 179.37 33.7C179.562 33.9133 179.775 34.0627 180.01 34.148C180.266 34.2333 180.49 34.2973 180.682 34.34C180.874 34.3827 180.97 34.4893 180.97 34.66C180.97 35.1293 180.906 35.6093 180.778 36.1C180.65 36.5907 180.436 37.0387 180.138 37.444C179.86 37.8493 179.466 38.18 178.954 38.436C178.463 38.692 177.855 38.82 177.13 38.82C176.106 38.82 175.338 38.5747 174.826 38.084C174.314 37.5933 173.972 36.9107 173.802 36.036C173.29 36.7827 172.618 37.4333 171.786 37.988C170.975 38.5427 169.908 38.82 168.586 38.82C167.946 38.82 167.338 38.7453 166.762 38.596C166.207 38.4467 165.716 38.2013 165.29 37.86C164.884 37.5187 164.554 37.0813 164.298 36.548C164.063 35.9933 163.946 35.332 163.946 34.564ZM173.898 30.916C173.343 30.916 172.799 30.9587 172.266 31.044C171.732 31.1293 171.252 31.268 170.826 31.46C170.42 31.6307 170.09 31.8653 169.834 32.164C169.578 32.4627 169.45 32.8253 169.45 33.252C169.45 33.7427 169.599 34.084 169.898 34.276C170.218 34.468 170.559 34.564 170.922 34.564C171.263 34.564 171.604 34.4893 171.946 34.34C172.287 34.1907 172.586 33.9667 172.842 33.668C173.119 33.348 173.354 32.964 173.546 32.516C173.738 32.068 173.855 31.5347 173.898 30.916ZM193.901 34.724C193.368 35.684 192.717 36.3987 191.949 36.868C191.181 37.316 190.221 37.54 189.069 37.54C188.194 37.54 187.394 37.4013 186.669 37.124C185.944 36.8467 185.325 36.4093 184.813 35.812C184.301 35.2147 183.896 34.468 183.597 33.572C183.32 32.6547 183.181 31.5667 183.181 30.308C183.181 29.284 183.288 28.2067 183.501 27.076C183.714 25.924 184.098 24.868 184.653 23.908C185.229 22.948 186.008 22.1587 186.989 21.54C187.97 20.9 189.229 20.58 190.765 20.58C191.405 20.58 191.949 20.6547 192.397 20.804C192.866 20.932 193.261 21.1133 193.581 21.348C193.922 21.5827 194.189 21.86 194.381 22.18C194.594 22.5 194.754 22.8413 194.861 23.204C194.861 23.2253 194.861 23.1507 194.861 22.98C194.882 22.788 194.904 22.5747 194.925 22.34C194.946 22.1053 194.957 21.8813 194.957 21.668C194.978 21.4333 194.989 21.284 194.989 21.22C195.01 21.0067 195.149 20.9 195.405 20.9H196.877C197.986 20.9 198.786 21.1347 199.277 21.604C199.789 22.052 200.045 22.916 200.045 24.196C200.045 24.3667 200.034 24.7613 200.013 25.38C199.992 25.9773 199.949 26.7027 199.885 27.556C199.842 28.4093 199.778 29.3587 199.693 30.404C199.608 31.428 199.512 32.4627 199.405 33.508C199.298 34.5533 199.181 35.556 199.053 36.516C198.925 37.476 198.786 38.3187 198.637 39.044C198.488 39.7693 198.232 40.4733 197.869 41.156C197.506 41.8387 196.994 42.4467 196.333 42.98C195.672 43.5133 194.818 43.94 193.773 44.26C192.749 44.58 191.49 44.74 189.997 44.74C188.866 44.74 187.874 44.6333 187.021 44.42C186.189 44.2067 185.496 43.9187 184.941 43.556C184.386 43.2147 183.96 42.82 183.661 42.372C183.384 41.924 183.245 41.476 183.245 41.028C183.245 40.6227 183.33 40.2707 183.501 39.972C183.672 39.6733 183.896 39.428 184.173 39.236C184.45 39.044 184.749 38.8947 185.069 38.788C185.41 38.7027 185.73 38.66 186.029 38.66C186.392 38.66 186.658 38.7667 186.829 38.98C187 39.1933 187.192 39.428 187.405 39.684C187.618 39.9613 187.917 40.2067 188.301 40.42C188.685 40.6333 189.282 40.74 190.093 40.74C191.501 40.74 192.482 40.2173 193.037 39.172C193.613 38.148 193.901 36.6653 193.901 34.724ZM191.213 33.284C191.981 33.284 192.578 33.1027 193.005 32.74C193.453 32.3773 193.794 31.94 194.029 31.428C194.264 30.916 194.413 30.3827 194.477 29.828C194.541 29.2733 194.573 28.7933 194.573 28.388C194.573 27.108 194.37 26.2013 193.965 25.668C193.581 25.1133 192.994 24.836 192.205 24.836C191.416 24.836 190.797 25.0493 190.349 25.476C189.901 25.9027 189.56 26.4147 189.325 27.012C189.112 27.588 188.973 28.1747 188.909 28.772C188.845 29.348 188.813 29.796 188.813 30.116C188.813 31.1827 188.994 31.9827 189.357 32.516C189.72 33.028 190.338 33.284 191.213 33.284ZM206.671 38.5C206.009 38.5 205.465 38.436 205.039 38.308C204.633 38.1587 204.303 37.956 204.047 37.7C203.812 37.444 203.641 37.1347 203.535 36.772C203.449 36.388 203.407 35.9507 203.407 35.46C203.407 35.14 203.417 34.692 203.439 34.116C203.481 33.5187 203.545 32.708 203.631 31.684C203.716 30.6387 203.812 29.3267 203.919 27.748C204.047 26.148 204.196 24.1747 204.367 21.828C204.388 21.3587 204.441 21.0813 204.527 20.996C204.591 20.932 204.761 20.9 205.039 20.9H206.286C206.948 20.9 207.481 20.964 207.887 21.092C208.313 21.22 208.644 21.412 208.879 21.668C209.135 21.924 209.305 22.2333 209.391 22.596C209.497 22.9587 209.551 23.364 209.551 23.812C209.551 24.132 209.529 24.612 209.487 25.252C209.444 25.892 209.38 26.7667 209.295 27.876C209.231 28.964 209.135 30.3293 209.007 31.972C208.879 33.5933 208.719 35.556 208.527 37.86C208.505 38.116 208.452 38.2867 208.367 38.372C208.281 38.4573 208.1 38.5 207.823 38.5H206.671ZM204.399 17.124C204.399 16.2707 204.708 15.5987 205.327 15.108C205.945 14.6173 206.777 14.372 207.823 14.372C208.74 14.372 209.401 14.564 209.807 14.948C210.233 15.3107 210.447 15.8013 210.447 16.42C210.447 17.2093 210.148 17.8707 209.551 18.404C208.975 18.916 208.121 19.172 206.991 19.172C205.263 19.172 204.399 18.4893 204.399 17.124ZM220.939 34.564C221.557 34.564 222.091 34.4787 222.539 34.308C223.008 34.1373 223.413 33.9453 223.755 33.732C224.096 33.5187 224.384 33.3267 224.619 33.156C224.853 32.9853 225.067 32.9 225.259 32.9C225.749 32.9 225.995 33.22 225.995 33.86C225.995 34.0093 225.963 34.2227 225.899 34.5C225.835 34.756 225.749 35.0333 225.643 35.332C225.536 35.6093 225.419 35.876 225.291 36.132C225.184 36.388 225.077 36.58 224.971 36.708C224.864 36.8147 224.672 36.9853 224.395 37.22C224.139 37.4547 223.787 37.6893 223.339 37.924C222.891 38.1587 222.368 38.3613 221.771 38.532C221.173 38.724 220.512 38.82 219.786 38.82C218.976 38.82 218.133 38.7027 217.259 38.468C216.405 38.212 215.627 37.7853 214.923 37.188C214.219 36.5693 213.632 35.748 213.163 34.724C212.715 33.6787 212.491 32.3773 212.491 30.82C212.491 30.2653 212.523 29.636 212.587 28.932C212.672 28.2067 212.832 27.4707 213.067 26.724C213.301 25.956 213.611 25.2093 213.995 24.484C214.4 23.7373 214.933 23.076 215.595 22.5C216.256 21.924 217.045 21.4653 217.963 21.124C218.901 20.7613 220.011 20.58 221.291 20.58C222.336 20.58 223.232 20.708 223.979 20.964C224.747 21.1987 225.376 21.5293 225.867 21.956C226.357 22.3613 226.72 22.8413 226.955 23.396C227.211 23.9507 227.339 24.548 227.339 25.188C227.339 26.34 226.976 27.1933 226.251 27.748C225.525 28.2813 224.501 28.548 223.179 28.548C222.859 28.548 222.635 28.5267 222.507 28.484C222.4 28.42 222.347 28.292 222.347 28.1C222.347 27.588 222.336 27.1293 222.315 26.724C222.293 26.3187 222.229 25.9773 222.123 25.7C222.037 25.4227 221.899 25.2093 221.707 25.06C221.515 24.9107 221.237 24.836 220.875 24.836C220.213 24.836 219.68 25.0493 219.275 25.476C218.891 25.9027 218.592 26.4253 218.379 27.044C218.187 27.6413 218.059 28.26 217.995 28.9C217.952 29.54 217.931 30.0733 217.931 30.5C217.931 32.0147 218.165 33.0707 218.635 33.668C219.125 34.2653 219.893 34.564 220.939 34.564ZM240.648 38.5C239.432 38.5 238.568 38.2653 238.056 37.796C237.565 37.3053 237.32 36.5907 237.32 35.652C237.32 35.3747 237.33 34.9373 237.352 34.34C237.394 33.7213 237.448 32.996 237.512 32.164C237.576 31.332 237.64 30.4253 237.704 29.444C237.789 28.4627 237.874 27.46 237.96 26.436C238.066 25.1773 238.152 24.1 238.216 23.204C238.301 22.2867 238.365 21.508 238.408 20.868C238.45 20.2067 238.482 19.6627 238.504 19.236C238.546 18.788 238.568 18.404 238.568 18.084C238.589 17.7427 238.6 17.4333 238.6 17.156C238.621 16.8787 238.632 16.58 238.632 16.26C238.632 16.0893 238.685 15.972 238.792 15.908C238.898 15.8227 239.005 15.78 239.112 15.78C239.666 15.78 240.274 15.7693 240.936 15.748C241.597 15.7053 242.258 15.6627 242.92 15.62C243.581 15.5773 244.221 15.5453 244.84 15.524C245.458 15.4813 246.002 15.46 246.472 15.46C247.837 15.46 249.01 15.6307 249.992 15.972C250.973 16.292 251.762 16.772 252.36 17.412C252.978 18.0307 253.426 18.788 253.704 19.684C254.002 20.58 254.152 21.604 254.152 22.756C254.152 24.0147 253.981 25.2307 253.64 26.404C253.32 27.556 252.808 28.58 252.104 29.476C251.4 30.372 250.493 31.0867 249.384 31.62C248.274 32.1533 246.952 32.42 245.416 32.42C244.498 32.42 243.72 32.324 243.08 32.132L242.632 38.02C242.61 38.1907 242.568 38.3187 242.504 38.404C242.44 38.468 242.312 38.5 242.12 38.5H240.648ZM245.832 20.26C245.554 20.26 245.245 20.2813 244.904 20.324C244.562 20.3453 244.2 20.3773 243.816 20.42C243.773 21.316 243.72 22.404 243.656 23.684C243.592 24.964 243.506 26.308 243.4 27.716C243.72 27.8013 244.029 27.8653 244.328 27.908C244.648 27.9293 244.936 27.94 245.192 27.94C245.938 27.94 246.536 27.7693 246.984 27.428C247.453 27.0653 247.816 26.628 248.072 26.116C248.328 25.604 248.498 25.0707 248.584 24.516C248.669 23.9613 248.712 23.4813 248.712 23.076C248.712 22.1587 248.498 21.4653 248.072 20.996C247.666 20.5053 246.92 20.26 245.832 20.26ZM260.024 38.788C258.701 38.788 257.752 38.436 257.176 37.732C256.6 37.028 256.312 35.8653 256.312 34.244C256.312 33.988 256.323 33.668 256.344 33.284C256.387 32.9 256.429 32.4093 256.472 31.812C256.536 31.1933 256.611 30.436 256.696 29.54C256.781 28.644 256.867 27.556 256.952 26.276C257.059 24.996 257.165 23.492 257.272 21.764C257.4 20.036 257.528 18.0307 257.656 15.748C257.677 15.2787 257.731 15.0013 257.816 14.916C257.88 14.852 258.051 14.82 258.328 14.82H259.576C260.216 14.82 260.749 14.8947 261.176 15.044C261.603 15.1933 261.944 15.396 262.2 15.652C262.456 15.908 262.637 16.2067 262.744 16.548C262.851 16.868 262.904 17.2093 262.904 17.572C262.904 17.9987 262.872 18.6173 262.808 19.428C262.765 20.2173 262.701 21.1133 262.616 22.116C262.531 23.1187 262.445 24.164 262.36 25.252C262.275 26.34 262.189 27.3853 262.104 28.388C262.019 29.3693 261.944 30.2547 261.88 31.044C261.837 31.8333 261.816 32.4307 261.816 32.836C261.816 33.3907 261.912 33.7853 262.104 34.02C262.317 34.2547 262.541 34.4253 262.776 34.532C263.011 34.6173 263.224 34.6813 263.416 34.724C263.629 34.7453 263.736 34.8093 263.736 34.916C263.736 35.3853 263.683 35.8547 263.576 36.324C263.469 36.772 263.277 37.188 263 37.572C262.723 37.9347 262.339 38.2333 261.848 38.468C261.379 38.6813 260.771 38.788 260.024 38.788ZM265.508 34.564C265.508 32.644 266.372 31.14 268.1 30.052C269.828 28.964 272.378 28.3773 275.748 28.292C275.77 28.0573 275.78 27.8653 275.78 27.716C275.802 27.5453 275.812 27.3427 275.812 27.108C275.812 26.4253 275.684 25.8813 275.428 25.476C275.172 25.0707 274.639 24.868 273.828 24.868C273.38 24.868 273.018 24.932 272.74 25.06C272.463 25.188 272.239 25.3693 272.068 25.604C271.898 25.8173 271.759 26.084 271.652 26.404C271.546 26.724 271.45 27.076 271.364 27.46C271.322 27.652 271.226 27.78 271.076 27.844C270.927 27.8867 270.692 27.908 270.372 27.908C268.196 27.908 267.108 27.0867 267.108 25.444C267.108 24.7827 267.258 24.1533 267.556 23.556C267.876 22.9587 268.335 22.4467 268.932 22.02C269.551 21.572 270.319 21.22 271.236 20.964C272.154 20.708 273.22 20.58 274.436 20.58C276.804 20.58 278.522 21.0707 279.588 22.052C280.655 23.0333 281.188 24.42 281.188 26.212C281.188 26.4467 281.156 26.8733 281.092 27.492C281.05 28.0893 280.986 28.7293 280.9 29.412C280.836 30.0733 280.772 30.7027 280.708 31.3C280.666 31.8973 280.644 32.3133 280.644 32.548C280.644 33.0813 280.74 33.4653 280.932 33.7C281.124 33.9133 281.338 34.0627 281.572 34.148C281.828 34.2333 282.052 34.2973 282.244 34.34C282.436 34.3827 282.532 34.4893 282.532 34.66C282.532 35.1293 282.468 35.6093 282.34 36.1C282.212 36.5907 281.999 37.0387 281.7 37.444C281.423 37.8493 281.028 38.18 280.516 38.436C280.026 38.692 279.418 38.82 278.692 38.82C277.668 38.82 276.9 38.5747 276.388 38.084C275.876 37.5933 275.535 36.9107 275.364 36.036C274.852 36.7827 274.18 37.4333 273.348 37.988C272.538 38.5427 271.471 38.82 270.148 38.82C269.508 38.82 268.9 38.7453 268.324 38.596C267.77 38.4467 267.279 38.2013 266.852 37.86C266.447 37.5187 266.116 37.0813 265.86 36.548C265.626 35.9933 265.508 35.332 265.508 34.564ZM275.46 30.916C274.906 30.916 274.362 30.9587 273.828 31.044C273.295 31.1293 272.815 31.268 272.388 31.46C271.983 31.6307 271.652 31.8653 271.396 32.164C271.14 32.4627 271.012 32.8253 271.012 33.252C271.012 33.7427 271.162 34.084 271.46 34.276C271.78 34.468 272.122 34.564 272.484 34.564C272.826 34.564 273.167 34.4893 273.508 34.34C273.85 34.1907 274.148 33.9667 274.404 33.668C274.682 33.348 274.916 32.964 275.108 32.516C275.3 32.068 275.418 31.5347 275.46 30.916ZM291.112 23.844C291.112 24.3347 291.08 24.9213 291.016 25.604C290.952 26.2653 290.877 26.9373 290.792 27.62C290.728 28.2813 290.664 28.9107 290.6 29.508C290.536 30.084 290.504 30.532 290.504 30.852C290.504 31.6627 290.696 32.2707 291.08 32.676C291.485 33.06 291.976 33.252 292.552 33.252C293.554 33.252 294.354 32.7293 294.952 31.684C295.549 30.6387 295.922 29.252 296.072 27.524L296.584 21.54C296.605 21.3053 296.68 21.1453 296.808 21.06C296.957 20.9533 297.117 20.9 297.288 20.9H298.44C298.888 20.9 299.304 20.9427 299.688 21.028C300.093 21.092 300.445 21.2307 300.744 21.444C301.042 21.636 301.277 21.9027 301.448 22.244C301.618 22.5853 301.704 23.0227 301.704 23.556C301.704 23.7693 301.682 24.1747 301.64 24.772C301.618 25.348 301.565 26.1907 301.48 27.3C301.416 28.388 301.32 29.7747 301.192 31.46C301.064 33.124 300.914 35.1613 300.744 37.572C300.637 38.98 300.317 40.1427 299.784 41.06C299.272 41.9987 298.621 42.7347 297.832 43.268C297.042 43.8227 296.157 44.2067 295.176 44.42C294.194 44.6333 293.192 44.74 292.168 44.74C291.08 44.74 290.077 44.644 289.16 44.452C288.264 44.26 287.485 43.9933 286.824 43.652C286.162 43.3107 285.64 42.916 285.256 42.468C284.893 42.02 284.712 41.54 284.712 41.028C284.712 40.6227 284.797 40.2707 284.968 39.972C285.16 39.6733 285.405 39.428 285.704 39.236C286.002 39.044 286.344 38.8947 286.728 38.788C287.133 38.7027 287.549 38.66 287.976 38.66C288.189 38.66 288.338 38.7667 288.424 38.98C288.53 39.1933 288.68 39.428 288.872 39.684C289.085 39.9613 289.416 40.2067 289.864 40.42C290.312 40.6333 290.984 40.74 291.88 40.74C292.669 40.74 293.309 40.548 293.8 40.164C294.29 39.78 294.664 39.2893 294.92 38.692C295.197 38.0947 295.378 37.444 295.464 36.74C295.549 36.036 295.592 35.364 295.592 34.724C295.25 35.3213 294.866 35.812 294.44 36.196C294.034 36.5587 293.608 36.8467 293.16 37.06C292.712 37.252 292.264 37.38 291.816 37.444C291.368 37.508 290.941 37.54 290.536 37.54C289.746 37.54 289.021 37.4333 288.36 37.22C287.72 37.0067 287.165 36.6653 286.696 36.196C286.226 35.7053 285.864 35.076 285.608 34.308C285.352 33.54 285.224 32.612 285.224 31.524C285.224 31.1187 285.245 30.5853 285.288 29.924C285.33 29.2413 285.384 28.484 285.448 27.652C285.512 26.7987 285.576 25.8813 285.64 24.9C285.725 23.9187 285.81 22.916 285.896 21.892C285.938 21.2307 286.237 20.9 286.792 20.9H287.816C288.498 20.9 289.053 20.964 289.48 21.092C289.906 21.22 290.237 21.412 290.472 21.668C290.728 21.9027 290.898 22.212 290.984 22.596C291.069 22.9587 291.112 23.3747 291.112 23.844Z" fill="#011739"/>
<defs>
<radialGradient id="paint0_radial_1961_987" cx="0" cy="0" r="1" gradientUnits="userSpaceOnUse" gradientTransform="translate(27 25.5) scale(24.7525)">
<stop stop-color="#002155"/>
<stop offset="0.3" stop-color="#001F51"/>
<stop offset="0.6" stop-color="#001C46"/>
<stop offset="0.9" stop-color="#001635"/>
<stop offset="1" stop-color="#00142C"/>
</radialGradient>
<linearGradient id="paint1_linear_1961_987" x1="30.4953" y1="26.8363" x2="33.7957" y2="27.2653" gradientUnits="userSpaceOnUse">
<stop stop-color="white"/>
<stop offset="0.1" stop-color="#E6FFEC"/>
<stop offset="0.4" stop-color="#A6FFBD"/>
<stop offset="0.8" stop-color="#41FF72"/>
<stop offset="1" stop-color="#00FF42"/>
</linearGradient>
<linearGradient id="paint2_linear_1961_987" x1="24.1286" y1="24.5099" x2="26.9009" y2="24.873" gradientUnits="userSpaceOnUse">
<stop stop-color="white"/>
<stop offset="0.1" stop-color="#F8E6E6"/>
<stop offset="0.4" stop-color="#E8A6A8"/>
<stop offset="0.8" stop-color="#CF4145"/>
<stop offset="1" stop-color="#BF0005"/>
</linearGradient>
<linearGradient id="paint3_linear_1961_987" x1="24.1297" y1="7.90117" x2="26.3409" y2="8.18172" gradientUnits="userSpaceOnUse">
<stop stop-color="white"/>
<stop offset="0.1" stop-color="#FFE6FE"/>
<stop offset="0.4" stop-color="#FFA6FC"/>
<stop offset="0.8" stop-color="#FF41FA"/>
<stop offset="1" stop-color="#FF15F9"/>
</linearGradient>
<linearGradient id="paint4_linear_1961_987" x1="42.9084" y1="23.4468" x2="44.575" y2="23.6613" gradientUnits="userSpaceOnUse">
<stop stop-color="white"/>
<stop offset="0.3" stop-color="#C7FFB0"/>
<stop offset="0.6" stop-color="#8CFF5D"/>
<stop offset="0.9" stop-color="#68FF29"/>
<stop offset="1" stop-color="#5AFF15"/>
</linearGradient>
<linearGradient id="paint5_linear_1961_987" x1="29.0295" y1="17.3812" x2="42.8414" y2="17.3812" gradientUnits="userSpaceOnUse">
<stop stop-color="white"/>
<stop offset="0.1" stop-color="#F4E6FB"/>
<stop offset="0.4" stop-color="#D9A6F1"/>
<stop offset="0.7" stop-color="#AF41E2"/>
<stop offset="1" stop-color="#006279"/>
</linearGradient>
<linearGradient id="paint6_linear_1961_987" x1="33.6363" y1="26.0452" x2="42.1443" y2="27.1651" gradientUnits="userSpaceOnUse">
<stop stop-color="white"/>
<stop offset="0.1" stop-color="#FFE6ED"/>
<stop offset="0.4" stop-color="#FFA6C1"/>
<stop offset="0.8" stop-color="#FF417B"/>
<stop offset="1" stop-color="#FF004E"/>
</linearGradient>
<linearGradient id="paint7_linear_1961_987" x1="20.9703" y1="15.9449" x2="27.2688" y2="16.774" gradientUnits="userSpaceOnUse">
<stop stop-color="white"/>
<stop offset="0.1" stop-color="#E6F6FF"/>
<stop offset="0.4" stop-color="#A6E1FF"/>
<stop offset="0.8" stop-color="#41C0FF"/>
<stop offset="1" stop-color="#00ABFF"/>
</linearGradient>
<radialGradient id="paint8_radial_1961_987" cx="0" cy="0" r="1" gradientUnits="userSpaceOnUse" gradientTransform="translate(46.0262 13.6518) scale(1.25415)">
<stop stop-color="#EBE075"/>
<stop offset="0.3" stop-color="#D6CF4B"/>
<stop offset="0.5" stop-color="#C5C12A"/>
<stop offset="0.7" stop-color="#B8B713"/>
<stop offset="0.9" stop-color="#B1B104"/>
<stop offset="1" stop-color="#AFAF00"/>
</radialGradient>
<radialGradient id="paint9_radial_1961_987" cx="0" cy="0" r="1" gradientUnits="userSpaceOnUse" gradientTransform="translate(32.7919 23.6353) scale(1.25415)">
<stop stop-color="#EBE075"/>
<stop offset="0.3" stop-color="#D6CF4B"/>
<stop offset="0.5" stop-color="#C5C12A"/>
<stop offset="0.7" stop-color="#B8B713"/>
<stop offset="0.9" stop-color="#B1B104"/>
<stop offset="1" stop-color="#AFAF00"/>
</radialGradient>
<radialGradient id="paint10_radial_1961_987" cx="0" cy="0" r="1" gradientUnits="userSpaceOnUse" gradientTransform="translate(19.0625 12.0017) scale(0.775601)">
<stop stop-color="#EBE075"/>
<stop offset="0.3" stop-color="#D6CF4B"/>
<stop offset="0.5" stop-color="#C5C12A"/>
<stop offset="0.7" stop-color="#B8B713"/>
<stop offset="0.9" stop-color="#B1B104"/>
<stop offset="1" stop-color="#AFAF00"/>
</radialGradient>
<radialGradient id="paint11_radial_1961_987" cx="0" cy="0" r="1" gradientUnits="userSpaceOnUse" gradientTransform="translate(31.2737 7.54625) scale(1.25415)">
<stop stop-color="#EBE075"/>
<stop offset="0.3" stop-color="#D6CF4B"/>
<stop offset="0.5" stop-color="#C5C12A"/>
<stop offset="0.7" stop-color="#B8B713"/>
<stop offset="0.9" stop-color="#B1B104"/>
<stop offset="1" stop-color="#AFAF00"/>
</radialGradient>
<radialGradient id="paint12_radial_1961_987" cx="0" cy="0" r="1" gradientUnits="userSpaceOnUse" gradientTransform="translate(43.089 26.0281) scale(0.775602 0.775599)">
<stop stop-color="#EBE075"/>
<stop offset="0.3" stop-color="#D6CF4B"/>
<stop offset="0.5" stop-color="#C5C12A"/>
<stop offset="0.7" stop-color="#B8B713"/>
<stop offset="0.9" stop-color="#B1B104"/>
<stop offset="1" stop-color="#AFAF00"/>
</radialGradient>
<radialGradient id="paint13_radial_1961_987" cx="0" cy="0" r="1" gradientUnits="userSpaceOnUse" gradientTransform="translate(24.7391 19.5595) scale(0.9241)">
<stop stop-color="#EBE075"/>
<stop offset="0.3" stop-color="#D6CF4B"/>
<stop offset="0.5" stop-color="#C5C12A"/>
<stop offset="0.7" stop-color="#B8B713"/>
<stop offset="0.9" stop-color="#B1B104"/>
<stop offset="1" stop-color="#AFAF00"/>
</radialGradient>
<radialGradient id="paint14_radial_1961_987" cx="0" cy="0" r="1" gradientUnits="userSpaceOnUse" gradientTransform="translate(38.9966 12.1832) scale(0.36305)">
<stop stop-color="#EBE075"/>
<stop offset="0.3" stop-color="#D6CF4B"/>
<stop offset="0.5" stop-color="#C5C12A"/>
<stop offset="0.7" stop-color="#B8B713"/>
<stop offset="0.9" stop-color="#B1B104"/>
<stop offset="1" stop-color="#AFAF00"/>
</radialGradient>
<radialGradient id="paint15_radial_1961_987" cx="0" cy="0" r="1" gradientUnits="userSpaceOnUse" gradientTransform="translate(23.6045 47.8707) rotate(-9.49955) scale(19.9712 19.9688)">
<stop stop-color="#000040"/>
<stop offset="0.5" stop-color="#000E31"/>
<stop offset="1" stop-color="#00142C"/>
</radialGradient>
<clipPath id="clip0_1961_987">
<rect width="50" height="50" fill="white" transform="translate(2 0.5)"/>
</clipPath>
</defs>
</svg>
