<svg width="50" height="50" viewBox="0 0 50 50" fill="none" xmlns="http://www.w3.org/2000/svg">
<g clip-path="url(#clip0_1962_1289)">
<path d="M25 49.75C38.669 49.75 49.75 38.669 49.75 25C49.75 11.331 38.669 0.25 25 0.25C11.331 0.25 0.25 11.331 0.25 25C0.25 38.669 11.331 49.75 25 49.75Z" fill="url(#paint0_radial_1962_1289)"/>
<path d="M25 0.5C38.55 0.5 49.5 11.45 49.5 25C49.5 38.55 38.55 49.5 25 49.5C11.45 49.5 0.5 38.55 0.5 25C0.5 11.45 11.45 0.5 25 0.5ZM25 0C18.3 0 12.05 2.6 7.35 7.35C2.65 12.1 0 18.35 0 25C0 31.65 2.6 37.95 7.35 42.65C12.1 47.35 18.35 50 25 50C31.65 50 37.95 47.4 42.65 42.65C47.35 37.9 50 31.65 50 25C50 18.35 47.4 12.05 42.65 7.35C37.9 2.65 31.7 0 25 0Z" fill="white"/>
<mask id="mask0_1962_1289" style="mask-type:luminance" maskUnits="userSpaceOnUse" x="0" y="0" width="50" height="50">
<path d="M25 49.5C38.531 49.5 49.5 38.531 49.5 25C49.5 11.469 38.531 0.5 25 0.5C11.469 0.5 0.5 11.469 0.5 25C0.5 38.531 11.469 49.5 25 49.5Z" fill="white"/>
</mask>
<g mask="url(#mask0_1962_1289)">
<path d="M30.1498 28.2C31.061 28.2 31.7998 27.4612 31.7998 26.55C31.7998 25.6387 31.061 24.9 30.1498 24.9C29.2385 24.9 28.4998 25.6387 28.4998 26.55C28.4998 27.4612 29.2385 28.2 30.1498 28.2Z" fill="url(#paint1_linear_1962_1289)"/>
<path d="M23.4999 25.6C24.2731 25.6 24.8999 24.9732 24.8999 24.2C24.8999 23.4268 24.2731 22.8 23.4999 22.8C22.7267 22.8 22.0999 23.4268 22.0999 24.2C22.0999 24.9732 22.7267 25.6 23.4999 25.6Z" fill="url(#paint2_linear_1962_1289)"/>
<path opacity="0.8" d="M23.2499 8.65001C23.8574 8.65001 24.3499 8.15753 24.3499 7.55001C24.3499 6.9425 23.8574 6.45001 23.2499 6.45001C22.6424 6.45001 22.1499 6.9425 22.1499 7.55001C22.1499 8.15753 22.6424 8.65001 23.2499 8.65001Z" fill="url(#paint3_linear_1962_1289)"/>
<path opacity="0.8" d="M41.7499 23.9C42.2193 23.9 42.5999 23.5195 42.5999 23.05C42.5999 22.5806 42.2193 22.2 41.7499 22.2C41.2805 22.2 40.8999 22.5806 40.8999 23.05C40.8999 23.5195 41.2805 23.9 41.7499 23.9Z" fill="url(#paint4_linear_1962_1289)"/>
<path opacity="0.8" d="M33.9498 23.8C37.7606 23.8 40.8498 20.7108 40.8498 16.9C40.8498 13.0892 37.7606 10 33.9498 10C30.139 10 27.0498 13.0892 27.0498 16.9C27.0498 20.7108 30.139 23.8 33.9498 23.8Z" fill="url(#paint5_linear_1962_1289)"/>
<path d="M39.7999 17H38.9499C38.9499 14.2 36.6499 11.9 33.8499 11.9V11.05C37.1499 11.05 39.7999 13.7 39.7999 17Z" fill="#EBF7FE"/>
<path opacity="0.8" d="M35.8999 30.4C38.2747 30.4 40.1999 28.4748 40.1999 26.1C40.1999 23.7252 38.2747 21.8 35.8999 21.8C33.525 21.8 31.5999 23.7252 31.5999 26.1C31.5999 28.4748 33.525 30.4 35.8999 30.4Z" fill="url(#paint6_linear_1962_1289)"/>
<path d="M39.3998 26.55L38.8998 26.5C39.0998 24.85 37.9498 23.3 36.2998 23.1L36.3498 22.6C38.2998 22.85 39.6498 24.65 39.3998 26.55Z" fill="#EBF7FE"/>
<path opacity="0.8" d="M22.0997 19C23.8394 19 25.2497 17.5897 25.2497 15.85C25.2497 14.1103 23.8394 12.7 22.0997 12.7C20.36 12.7 18.9497 14.1103 18.9497 15.85C18.9497 17.5897 20.36 19 22.0997 19Z" fill="url(#paint7_linear_1962_1289)"/>
<path d="M24.6999 16.2L24.3499 16.15C24.4999 14.95 23.6499 13.8 22.3999 13.65L22.4499 13.3C23.8999 13.45 24.8999 14.8 24.6999 16.2Z" fill="#EBF7FE"/>
<path d="M43.0998 14.4C43.3498 14 43.4998 13.6 43.4998 13.35C43.4998 13.1 43.2498 12.75 42.7498 12.4C43.0498 12.65 43.3998 12.75 43.6998 12.75C43.9998 12.75 44.5498 12.45 44.8498 11.9C44.5998 12.4 44.4998 12.8 44.4998 13.05C44.4998 13.3 44.7498 13.7 45.2498 14.35C44.7998 13.95 44.3998 13.8 44.0998 13.8C43.7998 13.8 43.5498 14 43.0998 14.4Z" fill="url(#paint8_radial_1962_1289)"/>
<path d="M29.8998 24.4C30.1498 24 30.2998 23.6 30.2998 23.35C30.2998 23.1 30.0498 22.75 29.5498 22.4C29.8498 22.65 30.1998 22.75 30.4998 22.75C30.7998 22.75 31.3498 22.45 31.6498 21.9C31.3998 22.4 31.2998 22.8 31.2998 23.05C31.2998 23.3 31.5498 23.7 32.0498 24.35C31.5998 23.95 31.1998 23.8 30.8998 23.8C30.5998 23.8 30.2998 24 29.8998 24.4Z" fill="url(#paint9_radial_1962_1289)"/>
<path d="M16.4998 12.3C16.6498 12.05 16.7498 11.8 16.7498 11.65C16.7498 11.5 16.5998 11.3 16.2998 11.05C16.4998 11.2 16.6998 11.25 16.8998 11.25C17.0998 11.25 17.3998 11.05 17.6498 10.7C17.4998 11 17.3998 11.25 17.3998 11.4C17.3998 11.55 17.5498 11.8 17.8498 12.2C17.5498 11.95 17.3498 11.85 17.1498 11.85C16.9498 11.85 16.7998 12.05 16.4998 12.3Z" fill="url(#paint10_radial_1962_1289)"/>
<path d="M28.3498 8.29999C28.5998 7.89999 28.7498 7.49999 28.7498 7.24999C28.7498 6.99999 28.4998 6.64999 27.9998 6.29999C28.2998 6.54999 28.6498 6.64999 28.9498 6.64999C29.2498 6.64999 29.7998 6.34999 30.0998 5.79999C29.8498 6.29999 29.7498 6.69999 29.7498 6.94999C29.7498 7.19999 29.9998 7.59999 30.4998 8.24999C30.0498 7.84999 29.6498 7.69999 29.3498 7.69999C29.0498 7.69999 28.7998 7.89999 28.3498 8.29999Z" fill="url(#paint11_radial_1962_1289)"/>
<path d="M40.5499 26.3C40.6999 26.05 40.7999 25.8 40.7999 25.65C40.7999 25.5 40.6499 25.3 40.3499 25.05C40.5499 25.2 40.7499 25.25 40.9499 25.25C41.1499 25.25 41.4499 25.05 41.6999 24.7C41.5499 25 41.4499 25.25 41.4499 25.4C41.4499 25.55 41.5999 25.8 41.8999 26.2C41.5999 25.95 41.3999 25.85 41.1999 25.85C40.9999 25.85 40.7999 26.05 40.5499 26.3Z" fill="url(#paint12_radial_1962_1289)"/>
<path d="M22.0498 20C22.2498 19.7 22.3498 19.45 22.3498 19.2C22.3498 19 22.1498 18.75 21.7998 18.5C22.0498 18.65 22.2998 18.75 22.4998 18.75C22.7498 18.75 23.0998 18.55 23.3498 18.1C23.1498 18.5 23.0998 18.75 23.0998 18.95C23.0998 19.15 23.2998 19.45 23.6498 19.9C23.2998 19.6 22.9998 19.5 22.7998 19.5C22.5498 19.55 22.3998 19.7 22.0498 20Z" fill="url(#paint13_radial_1962_1289)"/>
<path d="M34.9998 34.75C35.1998 34.45 35.2998 34.15 35.2998 33.95C35.2998 33.75 35.0998 33.5 34.7498 33.2C34.9998 33.35 35.2498 33.45 35.4998 33.45C35.7498 33.45 36.1498 33.25 36.3498 32.8C36.1498 33.2 36.0498 33.5 36.0498 33.65C36.0498 33.85 36.2498 34.15 36.5998 34.65C36.2498 34.35 35.9498 34.25 35.7498 34.25C35.5498 34.25 35.2998 34.4 34.9998 34.75Z" fill="black"/>
<path d="M36.7499 12.05C36.8499 11.95 36.8499 11.8 36.8499 11.75C36.8499 11.65 36.7999 11.6 36.6499 11.45C36.7499 11.5 36.8499 11.55 36.9499 11.55C37.0499 11.55 37.1999 11.45 37.2999 11.3C37.2499 11.45 37.1999 11.55 37.1999 11.65C37.1999 11.75 37.2499 11.85 37.3999 12.05C37.2499 11.95 37.1499 11.9 37.0499 11.9C36.9499 11.9 36.8499 11.95 36.7499 12.05Z" fill="url(#paint14_radial_1962_1289)"/>
<path d="M24.4999 26.55L42.6999 44.75L19.7999 67.6L1.6499 49.45L24.4999 26.55Z" fill="url(#paint15_radial_1962_1289)"/>
<path d="M6.14985 41.25L6.09985 43.75L8.44985 43.6C9.49985 42.85 10.6499 42 11.8499 41.1C16.7499 37.4 22.4499 32.85 28.0499 32.7L17.4499 21.9C17.1499 27.5 12.4999 33.1 8.69985 37.9C7.79985 39.1 6.89985 40.2 6.14985 41.25Z" fill="#FAC600"/>
<path d="M9.69983 38.9L10.9498 40.15C11.4998 40.7 12.3998 40.8 13.0498 40.3C17.6498 36.8 22.9498 32.9 28.1498 32.75L23.9998 26.1L17.4998 21.85C17.2498 27.05 13.2498 32.2 9.64983 36.75C9.09983 37.4 9.14983 38.3 9.69983 38.9Z" fill="#FED402"/>
<path d="M-8.75005 55.85L-3.95005 51.15L-1.60005 53.55L-4.65005 56.55C-6.15005 58 -6.15005 60.45 -4.65005 62L-1.60005 65.15C-0.100053 66.7 2.34995 66.75 3.84995 65.3L19.4999 49.9C20.9999 48.45 20.9999 46 19.4999 44.45L20.0999 42.25L22.1999 41.8C23.5999 43.2 24.2999 45.1 24.2499 46.9C24.2499 48.75 23.5 50.6 22.0999 52L4.44995 69.3C2.44995 71.25 -0.800053 71.25 -2.75005 69.2L-8.80005 63.05C-10.7501 61.05 -10.7001 57.8 -8.75005 55.85Z" fill="#FAC600"/>
<path d="M-7.15004 54.3L-2.35004 49.6L-3.71933e-05 52L-4.65004 56.55C-6.15004 58 -6.15004 60.45 -4.65004 62L-1.60004 65.15C-0.100037 66.7 2.34996 66.75 3.84996 65.3L21.1 48.4C22.6 46.95 22.6 44.5 21.1 42.95V42.2L22.15 41.9C23.55 43.3 24.25 45.2 24.2 47C24.2 48.85 23.45 50.7 22.05 52.1L6.04996 67.75C4.04996 69.7 0.799963 69.7 -1.15004 67.65L-7.15004 61.5C-9.15004 59.45 -9.10004 56.25 -7.15004 54.3Z" fill="#FED402"/>
<path d="M-10.7501 67.15L-13.1001 64.75L-9.7001 61.4L10.3999 41.75C12.0499 40.15 14.1499 39.35 16.2499 39.4C18.3499 39.4 20.4499 40.25 22.0999 41.9L21.0499 42.95C19.1499 41 15.9999 40.95 14.0499 42.9L-7.3501 63.85L-10.7501 67.15Z" fill="#D7D0D6"/>
<path d="M12.45 44.4C14.4 42.5 17.55 42.5 19.45 44.45L21.0499 42.9C19.15 40.95 16 40.9 14.05 42.85L12.45 44.4Z" fill="#BAAFB9"/>
<path d="M17.1999 21.6L28.3999 33.05C29.0499 33.7 30.0999 33.75 30.7999 33.05C30.9999 32.85 31.1499 32.55 31.2499 32.3C31.3999 31.75 31.2499 31.1 30.8499 30.65L19.5999 19.25C19.1499 18.8 18.5499 18.65 17.9999 18.8C17.6999 18.85 17.4499 19 17.2499 19.25C16.8999 19.6 16.7499 20 16.7499 20.45C16.6999 20.85 16.8499 21.3 17.1999 21.6Z" fill="#FEDBA6"/>
<path d="M18.3998 20.45L29.5998 31.9C30.0498 32.35 30.6498 32.5 31.1998 32.35C31.3498 31.8 31.1998 31.15 30.7998 30.7L19.5998 19.25C19.1498 18.8 18.5498 18.65 17.9998 18.8C17.9498 18.95 17.9498 19.1 17.9498 19.25C17.8998 19.65 18.0498 20.1 18.3998 20.45Z" fill="#FFEFD2"/>
</g>
</g>
<defs>
<radialGradient id="paint0_radial_1962_1289" cx="0" cy="0" r="1" gradientUnits="userSpaceOnUse" gradientTransform="translate(25 25) scale(24.7525)">
<stop stop-color="#002155"/>
<stop offset="0.3" stop-color="#001F51"/>
<stop offset="0.6" stop-color="#001C46"/>
<stop offset="0.9" stop-color="#001635"/>
<stop offset="1" stop-color="#00142C"/>
</radialGradient>
<linearGradient id="paint1_linear_1962_1289" x1="28.4953" y1="26.3362" x2="31.7957" y2="26.7653" gradientUnits="userSpaceOnUse">
<stop stop-color="white"/>
<stop offset="0.1" stop-color="#E6FFEC"/>
<stop offset="0.4" stop-color="#A6FFBD"/>
<stop offset="0.8" stop-color="#41FF72"/>
<stop offset="1" stop-color="#00FF42"/>
</linearGradient>
<linearGradient id="paint2_linear_1962_1289" x1="22.1286" y1="24.0099" x2="24.9009" y2="24.3729" gradientUnits="userSpaceOnUse">
<stop stop-color="white"/>
<stop offset="0.1" stop-color="#F8E6E6"/>
<stop offset="0.4" stop-color="#E8A6A8"/>
<stop offset="0.8" stop-color="#CF4145"/>
<stop offset="1" stop-color="#BF0005"/>
</linearGradient>
<linearGradient id="paint3_linear_1962_1289" x1="22.1297" y1="7.40111" x2="24.3409" y2="7.68166" gradientUnits="userSpaceOnUse">
<stop stop-color="white"/>
<stop offset="0.1" stop-color="#FFE6FE"/>
<stop offset="0.4" stop-color="#FFA6FC"/>
<stop offset="0.8" stop-color="#FF41FA"/>
<stop offset="1" stop-color="#FF15F9"/>
</linearGradient>
<linearGradient id="paint4_linear_1962_1289" x1="40.9084" y1="22.9467" x2="42.575" y2="23.1613" gradientUnits="userSpaceOnUse">
<stop stop-color="white"/>
<stop offset="0.3" stop-color="#C7FFB0"/>
<stop offset="0.6" stop-color="#8CFF5D"/>
<stop offset="0.9" stop-color="#68FF29"/>
<stop offset="1" stop-color="#5AFF15"/>
</linearGradient>
<linearGradient id="paint5_linear_1962_1289" x1="27.0295" y1="16.8812" x2="40.8414" y2="16.8812" gradientUnits="userSpaceOnUse">
<stop stop-color="white"/>
<stop offset="0.1" stop-color="#F4E6FB"/>
<stop offset="0.4" stop-color="#D9A6F1"/>
<stop offset="0.7" stop-color="#AF41E2"/>
<stop offset="1" stop-color="#006279"/>
</linearGradient>
<linearGradient id="paint6_linear_1962_1289" x1="31.6363" y1="25.5451" x2="40.1443" y2="26.6651" gradientUnits="userSpaceOnUse">
<stop stop-color="white"/>
<stop offset="0.1" stop-color="#FFE6ED"/>
<stop offset="0.4" stop-color="#FFA6C1"/>
<stop offset="0.8" stop-color="#FF417B"/>
<stop offset="1" stop-color="#FF004E"/>
</linearGradient>
<linearGradient id="paint7_linear_1962_1289" x1="18.9703" y1="15.4449" x2="25.2688" y2="16.2739" gradientUnits="userSpaceOnUse">
<stop stop-color="white"/>
<stop offset="0.1" stop-color="#E6F6FF"/>
<stop offset="0.4" stop-color="#A6E1FF"/>
<stop offset="0.8" stop-color="#41C0FF"/>
<stop offset="1" stop-color="#00ABFF"/>
</linearGradient>
<radialGradient id="paint8_radial_1962_1289" cx="0" cy="0" r="1" gradientUnits="userSpaceOnUse" gradientTransform="translate(44.0262 13.1518) scale(1.25415)">
<stop stop-color="#EBE075"/>
<stop offset="0.3" stop-color="#D6CF4B"/>
<stop offset="0.5" stop-color="#C5C12A"/>
<stop offset="0.7" stop-color="#B8B713"/>
<stop offset="0.9" stop-color="#B1B104"/>
<stop offset="1" stop-color="#AFAF00"/>
</radialGradient>
<radialGradient id="paint9_radial_1962_1289" cx="0" cy="0" r="1" gradientUnits="userSpaceOnUse" gradientTransform="translate(30.7919 23.1353) scale(1.25415)">
<stop stop-color="#EBE075"/>
<stop offset="0.3" stop-color="#D6CF4B"/>
<stop offset="0.5" stop-color="#C5C12A"/>
<stop offset="0.7" stop-color="#B8B713"/>
<stop offset="0.9" stop-color="#B1B104"/>
<stop offset="1" stop-color="#AFAF00"/>
</radialGradient>
<radialGradient id="paint10_radial_1962_1289" cx="0" cy="0" r="1" gradientUnits="userSpaceOnUse" gradientTransform="translate(17.0625 11.5017) scale(0.775601)">
<stop stop-color="#EBE075"/>
<stop offset="0.3" stop-color="#D6CF4B"/>
<stop offset="0.5" stop-color="#C5C12A"/>
<stop offset="0.7" stop-color="#B8B713"/>
<stop offset="0.9" stop-color="#B1B104"/>
<stop offset="1" stop-color="#AFAF00"/>
</radialGradient>
<radialGradient id="paint11_radial_1962_1289" cx="0" cy="0" r="1" gradientUnits="userSpaceOnUse" gradientTransform="translate(29.2737 7.04619) scale(1.25415)">
<stop stop-color="#EBE075"/>
<stop offset="0.3" stop-color="#D6CF4B"/>
<stop offset="0.5" stop-color="#C5C12A"/>
<stop offset="0.7" stop-color="#B8B713"/>
<stop offset="0.9" stop-color="#B1B104"/>
<stop offset="1" stop-color="#AFAF00"/>
</radialGradient>
<radialGradient id="paint12_radial_1962_1289" cx="0" cy="0" r="1" gradientUnits="userSpaceOnUse" gradientTransform="translate(41.089 25.5281) scale(0.775602 0.775599)">
<stop stop-color="#EBE075"/>
<stop offset="0.3" stop-color="#D6CF4B"/>
<stop offset="0.5" stop-color="#C5C12A"/>
<stop offset="0.7" stop-color="#B8B713"/>
<stop offset="0.9" stop-color="#B1B104"/>
<stop offset="1" stop-color="#AFAF00"/>
</radialGradient>
<radialGradient id="paint13_radial_1962_1289" cx="0" cy="0" r="1" gradientUnits="userSpaceOnUse" gradientTransform="translate(22.7391 19.0594) scale(0.9241)">
<stop stop-color="#EBE075"/>
<stop offset="0.3" stop-color="#D6CF4B"/>
<stop offset="0.5" stop-color="#C5C12A"/>
<stop offset="0.7" stop-color="#B8B713"/>
<stop offset="0.9" stop-color="#B1B104"/>
<stop offset="1" stop-color="#AFAF00"/>
</radialGradient>
<radialGradient id="paint14_radial_1962_1289" cx="0" cy="0" r="1" gradientUnits="userSpaceOnUse" gradientTransform="translate(36.9966 11.6831) scale(0.36305)">
<stop stop-color="#EBE075"/>
<stop offset="0.3" stop-color="#D6CF4B"/>
<stop offset="0.5" stop-color="#C5C12A"/>
<stop offset="0.7" stop-color="#B8B713"/>
<stop offset="0.9" stop-color="#B1B104"/>
<stop offset="1" stop-color="#AFAF00"/>
</radialGradient>
<radialGradient id="paint15_radial_1962_1289" cx="0" cy="0" r="1" gradientUnits="userSpaceOnUse" gradientTransform="translate(21.6045 47.3706) rotate(-9.49955) scale(19.9712 19.9688)">
<stop stop-color="#000040"/>
<stop offset="0.5" stop-color="#000E31"/>
<stop offset="1" stop-color="#00142C"/>
</radialGradient>
<clipPath id="clip0_1962_1289">
<rect width="50" height="50" fill="white"/>
</clipPath>
</defs>
</svg>
